<svg width="20" height="19.84" xmlns="http://www.w3.org/2000/svg">

 <g>
  <title>background</title>
  <rect fill="none" id="canvas_background" height="402" width="582" y="-1" x="-1"/>
 </g>
 <g>
  <g stroke="null" id="svg_7">
   <title fill="#e11ec8" stroke="null">Layer 1</title>
   <path fill="#e11ec8" stroke="null" id="svg_1" d="m1.048988,10.688246l9.626947,0a0.778349,0.778349 0 1 0 0,-1.536215l-9.626947,0a0.778349,0.778349 0 0 0 0,1.536215z"/>
   <path fill="#e11ec8" stroke="null" id="svg_2" d="m18.951012,9.152031l-2.806153,0a0.778349,0.778349 0 0 0 0,1.536215l2.806153,0a0.778349,0.778349 0 0 0 0,-1.536215z"/>
   <path fill="#e11ec8" stroke="null" id="svg_3" d="m9.324065,5.239804l9.626947,0a0.778349,0.778349 0 0 0 0.757866,-0.778349a0.757866,0.757866 0 0 0 -0.757866,-0.757866l-9.626947,0a0.757866,0.757866 0 0 0 -0.778349,0.757866a0.778349,0.778349 0 0 0 0.778349,0.778349z"/>
   <path fill="#e11ec8" stroke="null" id="svg_4" d="m1.048988,5.239804l2.806153,0a0.778349,0.778349 0 0 0 0.757866,-0.778349a0.757866,0.757866 0 0 0 -0.757866,-0.757866l-2.806153,0a0.757866,0.757866 0 0 0 -0.757866,0.757866a0.778349,0.778349 0 0 0 0.757866,0.778349z"/>
   <path fill="#e11ec8" stroke="null" id="svg_5" d="m18.951012,14.600473l-9.626947,0a0.757866,0.757866 0 0 0 -0.778349,0.757866a0.778349,0.778349 0 0 0 0.778349,0.778349l9.626947,0a0.778349,0.778349 0 0 0 0.757866,-0.778349a0.757866,0.757866 0 0 0 -0.757866,-0.757866z"/>
   <path fill="#e11ec8" stroke="null" id="svg_6" d="m3.85514,14.600473l-2.806153,0a0.757866,0.757866 0 0 0 -0.757866,0.757866a0.778349,0.778349 0 0 0 0.757866,0.778349l2.806153,0a0.778349,0.778349 0 0 0 0.757866,-0.778349a0.757866,0.757866 0 0 0 -0.757866,-0.757866z"/>
  </g>
 </g>
</svg>