<svg width="512" height="512" xmlns="http://www.w3.org/2000/svg">

 <g>
  <title>background</title>
  <rect fill="none" id="canvas_background" height="402" width="582" y="-1" x="-1"/>
 </g>
 <g>
  <title>Layer 1</title>
  <g stroke="null" id="svg_5">
   <path fill="#e11ec8" stroke="null" id="svg_1" d="m255.999294,87.874878c-94.273425,0 -182.693138,43.883014 -248.986115,123.560111c-6.313671,7.579124 -5.282729,18.846981 2.311123,25.160652c3.335268,2.779012 7.387663,4.140762 11.417401,4.140762c5.124122,0 10.214257,-2.200098 13.742118,-6.451885c59.386797,-71.354789 138.04768,-110.657474 221.51434,-110.657474c83.481387,0 162.154732,39.301553 221.513207,110.657474c6.313671,7.593852 17.581528,8.624794 25.174247,2.311123c7.579124,-6.300076 8.612332,-17.581528 2.311123,-25.160652c-66.278249,-79.677098 -154.703627,-123.560111 -248.997444,-123.560111z"/>
   <path fill="#e11ec8" stroke="null" id="svg_2" d="m255.999294,177.318736c-70.646724,0 -136.856999,32.823611 -186.435118,92.401869c-6.313671,7.594985 -5.282729,18.860576 2.312256,25.17538c7.579124,6.314804 18.859443,5.268001 25.160652,-2.311123c42.67194,-51.269544 99.122252,-79.512827 158.963343,-79.512827c59.861484,0 116.310663,28.228555 158.96221,79.512827c3.535792,4.250654 8.624794,6.439423 13.750049,6.439423c4.024073,0 8.082133,-1.348155 11.417401,-4.1283c7.587054,-6.313671 8.617996,-17.580395 2.311123,-25.17538c-49.55886,-59.578258 -115.775932,-92.401869 -186.441916,-92.401869z"/>
   <path fill="#e11ec8" stroke="null" id="svg_3" d="m255.999294,273.615527c-46.545337,0 -90.098676,21.542159 -122.645858,60.665845c-6.314804,7.592719 -5.282729,18.846981 2.311123,25.160652c3.342065,2.779012 7.387663,4.140762 11.417401,4.140762c5.13092,0 10.221055,-2.201231 13.748916,-6.451885c25.635339,-30.801378 59.428715,-47.776803 95.168419,-47.776803c35.746502,0 69.545542,16.975425 95.174083,47.776803c6.313671,7.592719 17.574731,8.624794 25.160652,2.324718c7.592719,-6.313671 8.624794,-17.581528 2.31792,-25.174247c-32.541518,-39.12482 -76.093724,-60.665845 -122.652656,-60.665845z"/>
   <path fill="#e11ec8" stroke="null" id="svg_4" d="m255.999294,359.5927c-21.962466,0 -41.853984,10.702539 -56.257718,28.007638l56.264515,36.524806l56.249788,-36.524806c-14.389006,-17.3051 -34.287322,-28.007638 -56.256585,-28.007638z"/>
  </g>
 </g>
</svg>